<?xml version="1.0" encoding="utf-8"?>
<!-- Generator: Adobe Illustrator 28.0.0, SVG Export Plug-In . SVG Version: 6.00 Build 0)  -->
<svg version="1.1" id="Layer_1" xmlns="http://www.w3.org/2000/svg" xmlns:xlink="http://www.w3.org/1999/xlink" x="0px" y="0px"
	 viewBox="0 0 24 24" style="enable-background:new 0 0 24 24;" xml:space="preserve">
<style type="text/css">
	.st0{fill:#070789;}
</style>
<path class="st0" d="M21.1,14.6c-0.5-1.5-2.3-2.5-3.8-1.9L11.1,2L0,22h20.2c2.1,0,3.8-1.7,3.8-3.8C24,16.5,22.8,15,21.1,14.6z
	 M20.2,20H17c-1.5,0-2.5-1.7-1.7-3l-3.6-6.3l-1.1,1.9l-1-1.9l-3,3.6l4.5-8.3l5.5,9.6c0.9-1.8,3.3-0.7,2.7,1.1
	c1.3-0.5,2.7,0.2,2.7,1.6C22,19.2,21.2,20,20.2,20z M18,11.4l-2.7-4.6l0.9-0.5l2.7,4.6L18,11.4z M21.3,13l-2.7-4.6l0.9-0.5l2.7,4.6
	L21.3,13z"/>
</svg>
